<svg width="30" height="30" viewBox="0 0 30 30" fill="none" xmlns="http://www.w3.org/2000/svg">
<path fill-rule="evenodd" clip-rule="evenodd" d="M11.6173 11.1147L28.9721 1.09492L28.9112 0.0811602L8.67353 4.78316C8.16251 4.90019 7.62595 4.81027 7.181 4.53304C6.73606 4.25581 6.41888 3.81378 6.29873 3.30349L5.53158 0L3.00382 0.151401L8.91468 10.3904C9.17818 10.8436 9.61028 11.1741 10.1166 11.3098C10.623 11.4455 11.1625 11.3754 11.6173 11.1147V11.1147ZM17.7373 18.4248L0.383184 28.4438L0.444056 29.4575L20.6818 24.7555C21.1928 24.6383 21.7295 24.7281 22.1745 25.0054C22.6195 25.2826 22.9366 25.7248 23.0566 26.2352L23.8245 29.5387L26.3523 29.3873L20.4414 19.149C20.1779 18.6954 19.7455 18.3646 19.2388 18.2289C18.7321 18.0932 18.1922 18.1636 17.7373 18.4248V18.4248ZM11.1154 17.8723L1.09492 0.517411L0.081163 0.578285L4.78316 20.8152C4.90021 21.3263 4.81031 21.863 4.5331 22.3081C4.25588 22.7531 3.81385 23.0705 3.3035 23.1908L0 23.958L0.1514 26.4849L10.3904 20.5741C10.8437 20.3109 11.1744 19.8789 11.3102 19.3727C11.4461 18.8665 11.376 18.3271 11.1154 17.8723V17.8723ZM18.2406 11.6664L28.2604 29.0213L29.2741 28.9604L24.5721 8.72347C24.4549 8.21244 24.5447 7.67578 24.822 7.23078C25.0993 6.78578 25.5414 6.46864 26.0518 6.34867L29.3553 5.58153L29.2039 3.05376L18.9649 8.9654C18.5115 9.22832 18.1807 9.66014 18.045 10.1664C17.9092 10.6726 17.9796 11.2119 18.2406 11.6664V11.6664Z" fill="#067164"/>
</svg>
